<svg width="96" height="96" viewBox="0 0 96 96" fill="none" xmlns="http://www.w3.org/2000/svg">
  <circle cx="48" cy="48" r="44" fill="#0B274A"/>
  <circle cx="48" cy="48" r="34" fill="#103764"/>
  <circle cx="48" cy="48" r="22" fill="#EAF4FF"/>
  <circle cx="48" cy="48" r="9" fill="#62ABEA"/>
  <g fill="#8FC3F3">
    <path d="M44 5a4 4 0 0 1 8 0v15h-8V5Z"/>
    <path d="M44 76h8v15a4 4 0 1 1-8 0V76Z"/>
    <path d="M5 44a4 4 0 0 1 0 8H20v-8H5Z"/>
    <path d="M76 44h15a4 4 0 1 1 0 8H76v-8Z"/>
    <path d="M17.6 13.4a4 4 0 0 1 5.7 0l10.6 10.6-5.7 5.7-10.6-10.6a4 4 0 0 1 0-5.7Z"/>
    <path d="M67.8 63.6 78.4 74.2a4 4 0 1 1-5.7 5.7L62.1 69.3l5.7-5.7Z"/>
    <path d="M17.6 79.9a4 4 0 0 1 0-5.7L28.2 63.6l5.7 5.7L23.3 79.9a4 4 0 0 1-5.7 0Z"/>
    <path d="M67.8 29.7 62.1 24l10.6-10.6a4 4 0 1 1 5.7 5.7L67.8 29.7Z"/>
  </g>
</svg>
