<svg width="96" height="96" viewBox="0 0 96 96" fill="none" xmlns="http://www.w3.org/2000/svg">
  <circle cx="48" cy="48" r="44" fill="#0E2F59"/>
  <circle cx="48" cy="48" r="34" fill="#133E72"/>
  <circle cx="48" cy="48" r="20" fill="#E9F3FF"/>
  <circle cx="48" cy="48" r="9" fill="#7FB9F5"/>
  <path d="M48 4C50.8 4 53 6.2 53 9V20H43V9C43 6.2 45.2 4 48 4Z" fill="#9CCAF8"/>
  <path d="M48 76C50.8 76 53 78.2 53 81V92C53 94.8 50.8 97 48 97C45.2 97 43 94.8 43 92V81C43 78.2 45.2 76 48 76Z" fill="#9CCAF8" transform="translate(0 -1)"/>
  <path d="M4 48C4 45.2 6.2 43 9 43H20V53H9C6.2 53 4 50.8 4 48Z" fill="#9CCAF8"/>
  <path d="M76 48C76 45.2 78.2 43 81 43H92C94.8 43 97 45.2 97 48C97 50.8 94.8 53 92 53H81C78.2 53 76 50.8 76 48Z" fill="#9CCAF8" transform="translate(-1 0)"/>
  <path d="M17.1 17.1C19.1 15.1 22.3 15.1 24.2 17.1L32 24.9L24.9 32L17.1 24.2C15.1 22.3 15.1 19.1 17.1 17.1Z" fill="#9CCAF8"/>
  <path d="M71.8 71.8C73.7 69.9 76.9 69.9 78.9 71.8C80.9 73.8 80.9 77 78.9 78.9L71.1 86.7L64 79.6L71.8 71.8Z" fill="#9CCAF8"/>
  <path d="M17.1 78.9C15.1 76.9 15.1 73.7 17.1 71.8C19.1 69.9 22.3 69.9 24.2 71.8L32 79.6L24.9 86.7L17.1 78.9Z" fill="#9CCAF8"/>
  <path d="M71.8 24.2L79.6 16.4C81.5 14.5 84.7 14.5 86.7 16.4C88.7 18.4 88.7 21.6 86.7 23.5L78.9 31.3L71.8 24.2Z" fill="#9CCAF8" transform="translate(-8.5 0.7)"/>
</svg>
